<svg id="visual" viewBox="0 0 1900 1080" width="1900" height="1080" xmlns="http://www.w3.org/2000/svg" xmlns:xlink="http://www.w3.org/1999/xlink" version="1.1"><rect x="0" y="0" width="1900" height="1080" fill="#f5f6f9"></rect><path d="M0 316L52.8 309.8C105.7 303.7 211.3 291.3 316.8 278.3C422.3 265.3 527.7 251.7 633.2 242.2C738.7 232.7 844.3 227.3 950 230.3C1055.7 233.3 1161.3 244.7 1266.8 250.3C1372.3 256 1477.7 256 1583.2 259C1688.7 262 1794.3 268 1847.2 271L1900 274L1900 0L1847.2 0C1794.3 0 1688.7 0 1583.2 0C1477.7 0 1372.3 0 1266.8 0C1161.3 0 1055.7 0 950 0C844.3 0 738.7 0 633.2 0C527.7 0 422.3 0 316.8 0C211.3 0 105.7 0 52.8 0L0 0Z" fill="#f3f3f3"></path><path d="M0 229L52.8 237.7C105.7 246.3 211.3 263.7 316.8 258.8C422.3 254 527.7 227 633.2 220.7C738.7 214.3 844.3 228.7 950 234C1055.7 239.3 1161.3 235.7 1266.8 242.3C1372.3 249 1477.7 266 1583.2 259.3C1688.7 252.7 1794.3 222.3 1847.2 207.2L1900 192L1900 0L1847.2 0C1794.3 0 1688.7 0 1583.2 0C1477.7 0 1372.3 0 1266.8 0C1161.3 0 1055.7 0 950 0C844.3 0 738.7 0 633.2 0C527.7 0 422.3 0 316.8 0C211.3 0 105.7 0 52.8 0L0 0Z" fill="#bebebf"></path><path d="M0 216L52.8 206C105.7 196 211.3 176 316.8 164.3C422.3 152.7 527.7 149.3 633.2 150.3C738.7 151.3 844.3 156.7 950 170.8C1055.7 185 1161.3 208 1266.8 209.3C1372.3 210.7 1477.7 190.3 1583.2 184.8C1688.7 179.3 1794.3 188.7 1847.2 193.3L1900 198L1900 0L1847.2 0C1794.3 0 1688.7 0 1583.2 0C1477.7 0 1372.3 0 1266.8 0C1161.3 0 1055.7 0 950 0C844.3 0 738.7 0 633.2 0C527.7 0 422.3 0 316.8 0C211.3 0 105.7 0 52.8 0L0 0Z" fill="#8b8b8d"></path><path d="M0 112L52.8 119.7C105.7 127.3 211.3 142.7 316.8 145.7C422.3 148.7 527.7 139.3 633.2 136.3C738.7 133.3 844.3 136.7 950 144.2C1055.7 151.7 1161.3 163.3 1266.8 168C1372.3 172.7 1477.7 170.3 1583.2 164.3C1688.7 158.3 1794.3 148.7 1847.2 143.8L1900 139L1900 0L1847.2 0C1794.3 0 1688.7 0 1583.2 0C1477.7 0 1372.3 0 1266.8 0C1161.3 0 1055.7 0 950 0C844.3 0 738.7 0 633.2 0C527.7 0 422.3 0 316.8 0C211.3 0 105.7 0 52.8 0L0 0Z" fill="#5c5c5e"></path><path d="M0 112L52.8 107.3C105.7 102.7 211.3 93.3 316.8 92.7C422.3 92 527.7 100 633.2 98C738.7 96 844.3 84 950 83.2C1055.7 82.3 1161.3 92.7 1266.8 98.7C1372.3 104.7 1477.7 106.3 1583.2 107.7C1688.7 109 1794.3 110 1847.2 110.5L1900 111L1900 0L1847.2 0C1794.3 0 1688.7 0 1583.2 0C1477.7 0 1372.3 0 1266.8 0C1161.3 0 1055.7 0 950 0C844.3 0 738.7 0 633.2 0C527.7 0 422.3 0 316.8 0C211.3 0 105.7 0 52.8 0L0 0Z" fill="#303133"></path><path d="M0 79L52.8 76.2C105.7 73.3 211.3 67.7 316.8 62.8C422.3 58 527.7 54 633.2 56.7C738.7 59.3 844.3 68.7 950 73C1055.7 77.3 1161.3 76.7 1266.8 73.2C1372.3 69.7 1477.7 63.3 1583.2 58.7C1688.7 54 1794.3 51 1847.2 49.5L1900 48L1900 0L1847.2 0C1794.3 0 1688.7 0 1583.2 0C1477.7 0 1372.3 0 1266.8 0C1161.3 0 1055.7 0 950 0C844.3 0 738.7 0 633.2 0C527.7 0 422.3 0 316.8 0C211.3 0 105.7 0 52.8 0L0 0Z" fill="#030509"></path></svg>