<svg xmlns="http://www.w3.org/2000/svg" version="1.1" xmlns:xlink="http://www.w3.org/1999/xlink" xmlns:svgjs="http://svgjs.dev/svgjs" viewBox="0 0 2400 800" opacity="0.91"><defs><linearGradient x1="50%" y1="0%" x2="50%" y2="100%" id="sssurf-grad"><stop stop-color="hsla(0, 0%, 0%, 1.00)" stop-opacity="1" offset="0%"></stop><stop stop-color="hsla(208, 100%, 47%, 1.00)" stop-opacity="1" offset="100%"></stop></linearGradient></defs><g fill="url(#sssurf-grad)" transform="matrix(1,0,0,1,0,-83.49853515625)"><path d="M 0 322.79986883520115 Q 480 450 480 316.99708161438855 Q 960 450 960 320.8207090380113 Q 1440 450 1440 318.353238730521 Q 1920 450 1920 318.268008249783 Q 2400 450 2400 318.26824412060944 L 2400 800 L 0 800 L 0 320.6487228750759 Z" transform="matrix(1,0,0,1,0,25)" opacity="0.05"></path><path d="M 0 322.79986883520115 Q 480 450 480 316.99708161438855 Q 960 450 960 320.8207090380113 Q 1440 450 1440 318.353238730521 Q 1920 450 1920 318.268008249783 Q 2400 450 2400 318.26824412060944 L 2400 800 L 0 800 L 0 320.6487228750759 Z" transform="matrix(1,0,0,1,0,50)" opacity="0.17"></path><path d="M 0 322.79986883520115 Q 480 450 480 316.99708161438855 Q 960 450 960 320.8207090380113 Q 1440 450 1440 318.353238730521 Q 1920 450 1920 318.268008249783 Q 2400 450 2400 318.26824412060944 L 2400 800 L 0 800 L 0 320.6487228750759 Z" transform="matrix(1,0,0,1,0,75)" opacity="0.29"></path><path d="M 0 322.79986883520115 Q 480 450 480 316.99708161438855 Q 960 450 960 320.8207090380113 Q 1440 450 1440 318.353238730521 Q 1920 450 1920 318.268008249783 Q 2400 450 2400 318.26824412060944 L 2400 800 L 0 800 L 0 320.6487228750759 Z" transform="matrix(1,0,0,1,0,100)" opacity="0.41"></path><path d="M 0 322.79986883520115 Q 480 450 480 316.99708161438855 Q 960 450 960 320.8207090380113 Q 1440 450 1440 318.353238730521 Q 1920 450 1920 318.268008249783 Q 2400 450 2400 318.26824412060944 L 2400 800 L 0 800 L 0 320.6487228750759 Z" transform="matrix(1,0,0,1,0,125)" opacity="0.53"></path><path d="M 0 322.79986883520115 Q 480 450 480 316.99708161438855 Q 960 450 960 320.8207090380113 Q 1440 450 1440 318.353238730521 Q 1920 450 1920 318.268008249783 Q 2400 450 2400 318.26824412060944 L 2400 800 L 0 800 L 0 320.6487228750759 Z" transform="matrix(1,0,0,1,0,150)" opacity="0.64"></path><path d="M 0 322.79986883520115 Q 480 450 480 316.99708161438855 Q 960 450 960 320.8207090380113 Q 1440 450 1440 318.353238730521 Q 1920 450 1920 318.268008249783 Q 2400 450 2400 318.26824412060944 L 2400 800 L 0 800 L 0 320.6487228750759 Z" transform="matrix(1,0,0,1,0,175)" opacity="0.76"></path><path d="M 0 322.79986883520115 Q 480 450 480 316.99708161438855 Q 960 450 960 320.8207090380113 Q 1440 450 1440 318.353238730521 Q 1920 450 1920 318.268008249783 Q 2400 450 2400 318.26824412060944 L 2400 800 L 0 800 L 0 320.6487228750759 Z" transform="matrix(1,0,0,1,0,200)" opacity="0.88"></path><path d="M 0 322.79986883520115 Q 480 450 480 316.99708161438855 Q 960 450 960 320.8207090380113 Q 1440 450 1440 318.353238730521 Q 1920 450 1920 318.268008249783 Q 2400 450 2400 318.26824412060944 L 2400 800 L 0 800 L 0 320.6487228750759 Z" transform="matrix(1,0,0,1,0,225)" opacity="1.00"></path></g></svg>