<svg id="visual" viewBox="0 0 1900 1080" width="1900" height="1080" xmlns="http://www.w3.org/2000/svg" xmlns:xlink="http://www.w3.org/1999/xlink" version="1.1"><path d="M0 77L173 66L345 98L518 66L691 141L864 120L1036 98L1209 141L1382 141L1555 109L1727 120L1900 131L1900 0L1727 0L1555 0L1382 0L1209 0L1036 0L864 0L691 0L518 0L345 0L173 0L0 0Z" fill="#151616"></path><path d="M0 271L173 303L345 303L518 228L691 368L864 347L1036 357L1209 444L1382 379L1555 357L1727 293L1900 239L1900 129L1727 118L1555 107L1382 139L1209 139L1036 96L864 118L691 139L518 64L345 96L173 64L0 75Z" fill="#191f20"></path><path d="M0 649L173 671L345 692L518 649L691 530L864 627L1036 530L1209 811L1382 638L1555 681L1727 660L1900 584L1900 237L1727 291L1555 355L1382 377L1209 442L1036 355L864 345L691 366L518 226L345 301L173 301L0 269Z" fill="#1d292a"></path><path d="M0 973L173 930L345 995L518 876L691 876L864 897L1036 854L1209 995L1382 962L1555 897L1727 854L1900 854L1900 582L1727 658L1555 679L1382 636L1209 809L1036 528L864 625L691 528L518 647L345 690L173 669L0 647Z" fill="#203236"></path><path d="M0 1081L173 1081L345 1081L518 1081L691 1081L864 1081L1036 1081L1209 1081L1382 1081L1555 1081L1727 1081L1900 1081L1900 852L1727 852L1555 895L1382 960L1209 993L1036 852L864 895L691 874L518 874L345 993L173 928L0 971Z" fill="#233c43"></path></svg>