<svg id="visual" viewBox="0 0 1900 1080" width="1900" height="1080" xmlns="http://www.w3.org/2000/svg" xmlns:xlink="http://www.w3.org/1999/xlink" version="1.1"><path d="M0 44L106 44L211 55L317 55L422 44L528 66L633 44L739 55L844 44L950 66L1056 44L1161 66L1267 55L1372 55L1478 44L1583 55L1689 55L1794 44L1900 55L1900 0L1794 0L1689 0L1583 0L1478 0L1372 0L1267 0L1161 0L1056 0L950 0L844 0L739 0L633 0L528 0L422 0L317 0L211 0L106 0L0 0Z" fill="#233c43"></path><path d="M0 109L106 98L211 131L317 131L422 120L528 131L633 98L739 131L844 98L950 120L1056 120L1161 141L1267 120L1372 109L1478 109L1583 109L1689 109L1794 120L1900 131L1900 53L1794 42L1689 53L1583 53L1478 42L1372 53L1267 53L1161 64L1056 42L950 64L844 42L739 53L633 42L528 64L422 42L317 53L211 53L106 42L0 42Z" fill="#344c4e"></path><path d="M0 152L106 152L211 185L317 174L422 174L528 185L633 141L739 185L844 141L950 163L1056 174L1161 195L1267 174L1372 152L1478 152L1583 163L1689 152L1794 174L1900 185L1900 129L1794 118L1689 107L1583 107L1478 107L1372 107L1267 118L1161 139L1056 118L950 118L844 96L739 129L633 96L528 129L422 118L317 129L211 129L106 96L0 107Z" fill="#485c5a"></path><path d="M0 206L106 195L211 228L317 217L422 217L528 239L633 195L739 228L844 185L950 206L1056 228L1161 249L1267 228L1372 195L1478 206L1583 217L1689 195L1794 228L1900 228L1900 183L1794 172L1689 150L1583 161L1478 150L1372 150L1267 172L1161 193L1056 172L950 161L844 139L739 183L633 139L528 183L422 172L317 172L211 183L106 150L0 150Z" fill="#5c6d67"></path><path d="M0 422L106 433L211 444L317 433L422 498L528 465L633 411L739 476L844 411L950 433L1056 465L1161 487L1267 422L1372 444L1478 401L1583 455L1689 401L1794 433L1900 487L1900 226L1794 226L1689 193L1583 215L1478 204L1372 193L1267 226L1161 247L1056 226L950 204L844 183L739 226L633 193L528 237L422 215L317 215L211 226L106 193L0 204Z" fill="#727d75"></path><path d="M0 541L106 552L211 530L317 530L422 584L528 573L633 498L739 573L844 498L950 541L1056 541L1161 573L1267 509L1372 530L1478 519L1583 552L1689 509L1794 519L1900 573L1900 485L1794 431L1689 399L1583 453L1478 399L1372 442L1267 420L1161 485L1056 463L950 431L844 409L739 474L633 409L528 463L422 496L317 431L211 442L106 431L0 420Z" fill="#888e85"></path><path d="M0 681L106 671L211 638L317 681L422 703L528 714L633 660L739 714L844 606L950 649L1056 660L1161 681L1267 638L1372 681L1478 627L1583 703L1689 649L1794 649L1900 725L1900 571L1794 517L1689 507L1583 550L1478 517L1372 528L1267 507L1161 571L1056 539L950 539L844 496L739 571L633 496L528 571L422 582L317 528L211 528L106 550L0 539Z" fill="#9e9f97"></path><path d="M0 735L106 725L211 692L317 725L422 746L528 757L633 714L739 757L844 660L950 703L1056 703L1161 725L1267 692L1372 725L1478 681L1583 746L1689 703L1794 692L1900 779L1900 723L1794 647L1689 647L1583 701L1478 625L1372 679L1267 636L1161 679L1056 658L950 647L844 604L739 712L633 658L528 712L422 701L317 679L211 636L106 669L0 679Z" fill="#b3b1aa"></path><path d="M0 800L106 800L211 768L317 822L422 822L528 822L633 800L739 833L844 757L950 800L1056 800L1161 800L1267 768L1372 811L1478 779L1583 811L1689 800L1794 768L1900 854L1900 777L1794 690L1689 701L1583 744L1478 679L1372 723L1267 690L1161 723L1056 701L950 701L844 658L739 755L633 712L528 755L422 744L317 723L211 690L106 723L0 733Z" fill="#c8c4bf"></path><path d="M0 876L106 887L211 843L317 887L422 887L528 887L633 876L739 919L844 833L950 865L1056 887L1161 876L1267 843L1372 876L1478 843L1583 887L1689 865L1794 843L1900 908L1900 852L1794 766L1689 798L1583 809L1478 777L1372 809L1267 766L1161 798L1056 798L950 798L844 755L739 831L633 798L528 820L422 820L317 820L211 766L106 798L0 798Z" fill="#dbd7d4"></path><path d="M0 1081L106 1081L211 1081L317 1081L422 1081L528 1081L633 1081L739 1081L844 1081L950 1081L1056 1081L1161 1081L1267 1081L1372 1081L1478 1081L1583 1081L1689 1081L1794 1081L1900 1081L1900 906L1794 841L1689 863L1583 885L1478 841L1372 874L1267 841L1161 874L1056 885L950 863L844 831L739 917L633 874L528 885L422 885L317 885L211 841L106 885L0 874Z" fill="#eeebea"></path></svg>